<?xml version="1.0" standalone="no"?>
<!DOCTYPE svg PUBLIC "-//W3C//DTD SVG 20010904//EN"
 "http://www.w3.org/TR/2001/REC-SVG-20010904/DTD/svg10.dtd">
<svg version="1.0" xmlns="http://www.w3.org/2000/svg"
 width="948.000000pt" height="948.000000pt" viewBox="0 0 948.000000 948.000000"
 preserveAspectRatio="xMidYMid meet">
<metadata>
Created by potrace 1.14, written by Peter Selinger 2001-2017
</metadata>
<g transform="translate(0.000000,948.000000) scale(0.100000,-0.100000)"
fill="#000000" stroke="none">
<path d="M3668 9460 c-32 -10 -58 -16 -58 -13 0 3 -7 0 -15 -7 -8 -7 -15 -10
-15 -7 0 3 -15 1 -32 -4 -18 -6 -40 -12 -48 -14 -8 -2 -15 -4 -15 -5 0 -1 -11
-3 -24 -6 -13 -2 -49 -12 -79 -20 -30 -9 -60 -17 -66 -18 -28 -7 -72 -18 -86
-23 -8 -4 -19 -7 -25 -8 -5 -1 -12 -3 -15 -4 -5 -3 -22 -7 -57 -15 -12 -2 -99
-25 -193 -51 -94 -26 -179 -48 -188 -50 -40 -10 -177 -47 -179 -49 -1 -1 1102
-1107 2452 -2456 1902 -1902 2451 -2457 2443 -2467 -6 -8 -13 -11 -15 -9 -3 2
-22 -2 -43 -9 -21 -7 -41 -11 -44 -8 -3 4 -6 1 -6 -6 0 -7 -4 -10 -9 -7 -5 3
-71 -12 -147 -33 -76 -22 -142 -37 -145 -35 -4 2 -9 0 -11 -5 -1 -5 -19 -12
-38 -14 -19 -3 -35 -6 -35 -7 0 -1 -7 -3 -15 -5 -8 -2 -42 -11 -75 -20 -33 -9
-67 -18 -75 -20 -8 -2 -58 -15 -110 -30 -52 -14 -102 -28 -110 -30 -8 -1 -51
-13 -95 -25 -90 -24 -153 -40 -175 -45 -8 -2 -15 -4 -15 -5 0 -1 -7 -3 -15 -5
-8 -2 -51 -13 -95 -25 -44 -12 -87 -23 -95 -25 -8 -2 -125 -34 -260 -70 -135
-36 -255 -68 -267 -71 -12 -2 -34 -9 -48 -14 -14 -5 -25 -7 -25 -4 0 4 -7 1
-15 -6 -8 -7 -15 -10 -15 -7 0 3 -15 1 -32 -4 -18 -6 -40 -12 -48 -14 -8 -2
-15 -4 -15 -5 0 -1 -7 -3 -16 -5 -9 -1 -78 -19 -153 -40 -74 -20 -143 -38
-153 -40 -10 -2 -18 -4 -18 -6 0 -1 -9 -3 -20 -5 -11 -1 -94 -23 -185 -49 -91
-25 -172 -48 -180 -50 -8 -2 -15 -4 -15 -5 0 -1 -9 -3 -20 -4 -11 -2 -99 -24
-195 -51 -96 -26 -182 -49 -190 -50 -8 -2 -15 -4 -15 -5 0 -1 -7 -3 -15 -5 -8
-1 -44 -11 -80 -20 -36 -9 -72 -18 -80 -20 -8 -2 -26 -8 -40 -13 -14 -5 -28
-10 -32 -11 -5 0 -9 -1 -10 -2 -2 0 -10 -2 -18 -4 -8 -2 -25 -6 -37 -9 -13 -3
-31 -8 -40 -10 -10 -3 -72 -19 -138 -36 -66 -18 -125 -33 -132 -34 -7 -1 -16
-5 -19 -9 -4 -4 -15 -7 -25 -7 -10 0 -20 -4 -23 -8 -4 -8 -50 -169 -61 -215
-2 -10 -7 -27 -10 -37 -3 -10 -7 -27 -9 -37 -2 -10 -10 -38 -17 -63 -7 -25
-13 -47 -13 -50 -1 -3 -5 -11 -9 -17 -5 -7 -6 -13 -4 -13 3 0 -6 -39 -20 -87
-13 -49 -26 -97 -28 -108 -3 -11 -21 -78 -40 -150 -20 -71 -38 -139 -40 -150
-3 -11 -11 -42 -19 -69 -8 -27 -13 -52 -11 -56 2 -4 93 17 202 47 109 29 207
55 218 57 11 3 20 5 20 6 0 1 7 3 15 5 8 1 35 8 60 15 25 7 52 14 60 16 8 2
83 22 165 44 83 23 157 43 165 44 8 2 58 16 110 30 52 15 102 29 110 30 8 2
35 9 60 16 25 7 56 14 69 17 14 2 29 7 34 10 6 3 20 8 31 9 12 2 62 15 111 29
50 14 99 27 110 29 11 3 61 16 110 29 50 14 142 39 205 56 63 18 123 34 133
36 10 2 27 7 37 10 10 3 27 8 37 10 10 2 45 11 78 20 33 9 67 18 75 20 8 3 42
12 75 21 33 9 67 18 75 20 8 2 33 8 55 14 22 6 47 13 55 15 8 2 16 4 18 5 2 3
4 3 52 14 19 4 71 18 114 32 43 13 83 21 88 18 4 -3 8 0 8 6 0 6 5 8 10 5 6
-3 16 -3 23 2 6 4 17 8 22 10 43 9 63 14 130 33 42 12 85 23 96 26 10 2 28 6
39 8 11 3 24 7 28 10 5 3 19 7 33 10 13 2 60 14 104 26 44 12 88 23 98 25 9 2
21 6 25 9 5 3 20 7 34 10 14 2 60 14 103 26 43 12 89 24 103 26 14 3 30 8 36
12 6 3 17 7 26 8 8 0 60 14 115 29 55 15 107 29 115 30 8 2 15 4 15 5 0 1 9 3
19 5 11 2 31 7 45 11 14 4 29 8 34 9 4 2 8 3 10 4 1 2 12 4 24 7 12 2 78 20
146 39 69 19 133 36 143 38 11 2 39 9 64 16 25 7 52 15 60 17 8 2 42 11 75 20
33 9 68 18 78 19 9 2 22 7 28 10 5 4 20 8 32 10 12 2 72 17 132 33 61 16 164
44 230 62 66 17 170 45 230 62 61 16 117 31 125 33 8 2 42 11 75 21 33 9 67
18 75 19 8 1 40 9 71 19 31 9 65 18 75 21 11 2 62 16 114 30 52 14 104 28 115
30 11 2 20 4 20 6 0 1 9 3 20 5 29 4 193 51 205 59 5 3 10 11 10 17 0 6 -492
503 -1092 1105 -601 601 -1877 1879 -2835 2838 -958 960 -1745 1745 -1750
1744 -4 0 -34 -9 -65 -19z"/>
<path d="M2178 8991 c-5 -14 -11 -33 -13 -41 -2 -13 -25 -95 -40 -150 -11 -39
-37 -137 -41 -150 -8 -33 -46 -177 -114 -425 -39 -143 -72 -269 -74 -280 -2
-11 -4 -20 -5 -20 -2 0 -4 -7 -15 -50 -2 -11 -16 -65 -31 -120 -15 -55 -29
-107 -30 -115 -2 -8 -4 -16 -5 -17 -2 -2 -3 -6 -4 -10 -1 -5 -5 -17 -9 -28 -3
-11 -9 -33 -12 -50 -8 -38 -13 -60 -15 -60 -1 0 -3 -11 -6 -25 -2 -14 -8 -36
-14 -50 -5 -14 -25 -88 -45 -165 -19 -77 -38 -147 -42 -155 -3 -8 -7 -22 -8
-30 -1 -8 -12 -50 -24 -92 -12 -43 -24 -85 -26 -95 -2 -10 -10 -43 -19 -73 -8
-30 -12 -58 -10 -61 2 -4 1 -9 -4 -11 -6 -2 -44 -133 -57 -198 -2 -8 -4 -15
-5 -15 -1 0 -3 -5 -14 -50 -2 -11 -12 -47 -21 -80 -9 -33 -18 -67 -20 -75 -2
-8 -24 -91 -50 -185 -26 -93 -48 -177 -50 -185 -2 -8 -10 -42 -20 -75 -26 -94
-35 -129 -39 -145 -2 -8 -9 -35 -16 -60 -7 -25 -14 -52 -15 -60 -2 -8 -10 -40
-19 -70 -33 -120 -48 -176 -52 -194 -2 -10 -8 -33 -13 -50 -6 -17 -29 -101
-51 -186 -23 -85 -43 -162 -45 -170 -6 -20 -72 -267 -97 -360 -11 -41 -21 -82
-23 -91 -2 -9 -12 -47 -23 -85 -32 -114 -63 -228 -67 -249 -2 -11 -4 -21 -5
-22 -2 -2 -4 -7 -5 -13 -1 -5 -4 -13 -5 -17 -1 -5 -2 -12 -1 -17 1 -4 -4 -14
-10 -22 -6 -8 -9 -14 -6 -14 3 0 1 -15 -5 -32 -5 -18 -11 -40 -13 -48 -1 -8
-5 -22 -8 -30 -4 -8 -8 -27 -11 -42 -3 -15 -7 -31 -10 -36 -3 -5 -7 -19 -10
-33 -3 -13 -19 -76 -36 -139 -17 -63 -33 -122 -35 -130 -9 -35 -76 -284 -105
-390 -17 -63 -33 -122 -35 -130 -2 -8 -15 -58 -30 -110 -14 -52 -28 -106 -31
-120 -3 -14 -10 -43 -16 -65 -6 -22 -12 -44 -14 -50 -1 -5 -9 -36 -19 -69 -9
-32 -19 -66 -20 -75 -2 -9 -4 -16 -5 -16 -1 0 -3 -7 -5 -15 -1 -8 -19 -76 -40
-150 -20 -74 -38 -144 -40 -155 -2 -11 -4 -22 -6 -25 -1 -3 -3 -9 -4 -15 -1
-5 -5 -17 -8 -25 -3 -8 -16 -53 -27 -100 -12 -47 -31 -116 -42 -155 -11 -38
-22 -79 -24 -90 -2 -11 -11 -47 -20 -80 -9 -33 -17 -64 -19 -70 -1 -5 -5 -17
-8 -25 -9 -23 -46 -164 -52 -201 -3 -18 -8 -36 -11 -41 -3 -4 -7 -18 -10 -30
-9 -39 -12 -53 -14 -53 -1 0 -3 -9 -5 -20 -2 -11 -10 -45 -19 -75 -8 -30 -14
-55 -13 -57 17 -21 447 -448 447 -444 0 3 4 -1 9 -8 9 -15 442 -451 447 -451
4 0 86 298 109 392 2 9 13 51 25 93 12 42 23 84 25 93 2 9 27 103 55 207 29
105 53 195 54 200 1 6 4 15 7 20 4 6 5 18 4 27 -2 10 2 18 8 18 5 0 8 3 5 6
-4 3 -2 20 3 37 11 36 11 35 38 137 11 41 27 100 36 130 9 30 18 64 20 75 3
11 7 29 9 40 3 11 14 54 26 95 11 41 28 102 36 135 9 33 18 67 21 75 4 8 5 19
4 24 -1 4 3 14 9 20 5 7 7 16 4 19 -3 3 -2 12 2 19 5 7 9 18 10 23 1 6 7 30
14 55 7 25 14 52 15 60 2 8 20 76 40 150 21 73 39 141 40 150 2 8 4 15 5 15 1
0 3 7 5 15 3 16 38 143 54 200 6 19 13 49 16 65 7 33 9 43 18 65 6 17 19 68
23 90 2 8 17 65 34 125 17 61 32 119 34 130 3 11 5 21 7 23 1 1 2 5 3 10 1 4
5 13 9 20 5 6 6 12 3 12 -2 0 0 15 5 33 6 17 12 41 14 52 3 11 16 61 30 110
24 85 29 102 40 150 2 11 20 79 40 150 20 72 38 139 40 150 2 11 4 20 5 20 1
0 3 7 5 15 2 8 35 134 75 280 107 395 112 413 115 437 2 12 6 27 11 34 4 7 8
22 10 33 2 12 8 37 13 56 15 54 72 263 77 283 2 9 6 25 9 35 2 9 20 76 39 147
19 72 39 142 45 158 6 15 9 27 7 27 -2 0 4 27 14 60 10 33 16 60 14 60 -3 0 0
8 5 18 6 11 12 30 15 43 2 13 32 125 66 249 33 124 63 236 66 250 2 14 9 36
14 50 5 14 12 36 14 50 3 14 13 52 22 85 9 33 18 68 20 78 7 30 12 49 48 178
19 70 37 137 40 150 6 26 47 180 72 267 9 28 17 52 20 52 2 0 657 -653 1455
-1451 905 -905 1456 -1449 1464 -1445 13 5 84 24 115 32 33 7 329 87 395 105
39 11 81 22 95 25 14 2 32 7 40 11 8 3 20 7 25 9 8 2 104 26 155 38 8 3 27 9
43 15 15 6 27 8 27 6 0 -2 12 0 28 6 28 11 68 21 90 22 6 0 12 3 12 6 0 3
-850 856 -1889 1895 -1039 1039 -1896 1897 -1904 1906 -8 10 -21 22 -28 27 -8
5 -180 175 -382 379 -358 361 -369 370 -379 345z"/>
<path d="M3000 6310 c-17 -59 -16 -54 -40 -140 -11 -41 -22 -82 -24 -90 -3 -8
-21 -76 -41 -150 -56 -207 -87 -323 -91 -342 -6 -26 -10 -40 -44 -163 -17 -60
-33 -121 -36 -135 -3 -14 -7 -32 -9 -40 -2 -8 -4 -16 -5 -17 -2 -2 -3 -6 -4
-10 -2 -5 -8 -28 -15 -53 -6 -25 -27 -101 -45 -170 -19 -69 -48 -179 -66 -245
-18 -66 -34 -127 -35 -135 -2 -8 -4 -15 -5 -15 -2 0 -5 -14 -14 -53 -3 -13 -8
-32 -11 -42 -3 -10 -8 -27 -10 -37 -8 -33 -50 -187 -71 -259 -8 -28 -16 -60
-18 -70 -2 -11 -11 -46 -20 -79 -9 -33 -18 -67 -20 -75 -2 -8 -10 -35 -17 -60
-7 -25 -14 -49 -15 -55 -1 -5 -12 -46 -24 -90 -12 -44 -23 -87 -25 -95 -2 -8
-22 -82 -45 -165 -22 -82 -42 -157 -44 -165 -2 -8 -6 -22 -9 -30 -4 -12 -17
-64 -32 -130 -1 -3 -7 -25 -14 -50 -7 -25 -15 -52 -16 -60 -2 -8 -8 -30 -14
-48 -5 -18 -10 -34 -11 -37 0 -3 -2 -10 -4 -17 -5 -14 -16 -63 -17 -75 -1 -5
-5 -18 -10 -31 -5 -12 -11 -33 -13 -45 -4 -20 -83 -318 -106 -397 -32 -113
-44 -157 -46 -169 -8 -46 -28 -117 -34 -126 -5 -5 -8 -13 -9 -18 -1 -20 -14
-83 -20 -92 -3 -5 -7 -20 -8 -31 -2 -12 -14 -59 -28 -104 -14 -45 -22 -86 -20
-91 3 -4 1 -10 -4 -13 -5 -3 -12 -23 -16 -43 -5 -21 -10 -42 -11 -48 -3 -9
-19 -68 -29 -105 -2 -8 -22 -85 -45 -170 -24 -85 -44 -162 -45 -170 -2 -8 -4
-15 -5 -15 -1 0 -3 -7 -5 -15 -1 -8 -12 -50 -24 -93 -13 -43 -24 -87 -27 -98
-2 -10 -6 -28 -8 -39 -3 -11 -7 -24 -10 -28 -3 -5 -7 -20 -10 -35 -2 -14 -14
-61 -26 -104 -12 -43 -23 -85 -26 -93 -6 -24 -64 -242 -75 -280 -5 -19 -12
-45 -14 -57 -3 -12 -10 -34 -15 -48 -5 -14 -7 -25 -4 -25 4 0 2 -6 -3 -12 -6
-7 -10 -20 -10 -28 -1 -8 -15 -64 -32 -125 -17 -60 -34 -122 -36 -137 l-5 -26
53 14 c28 8 61 17 72 19 11 3 70 19 130 35 61 17 117 32 125 34 8 2 58 16 110
31 52 14 104 28 115 29 11 2 20 4 20 5 0 3 11 5 50 14 50 12 112 29 135 37 14
6 34 11 45 13 11 2 40 9 65 16 25 7 53 15 63 17 19 3 166 43 282 76 38 11 78
22 90 24 11 2 68 17 126 33 58 17 117 32 130 35 13 3 56 14 94 25 122 33 266
72 283 76 9 2 44 12 77 21 33 9 67 17 75 19 8 2 83 22 165 45 83 23 157 43
165 45 8 2 85 22 170 45 143 39 212 57 250 65 8 2 15 4 15 5 0 1 7 3 15 5 8 2
33 9 55 15 22 6 49 13 60 15 11 2 61 16 110 30 50 14 103 28 119 31 16 2 34 8
40 11 6 4 17 8 26 9 8 1 60 14 115 29 55 15 105 28 110 30 6 1 17 4 25 7 15 6
146 40 165 44 6 1 80 21 165 44 175 48 190 51 208 52 6 1 12 4 12 8 0 3 10 6
23 7 22 2 45 8 142 37 28 8 61 17 75 20 14 3 68 17 120 31 52 15 102 28 110
30 8 1 35 9 60 16 67 19 90 24 130 33 11 3 24 7 28 10 5 3 19 7 33 10 13 3 35
8 49 11 14 3 32 8 40 10 8 2 15 4 15 5 0 1 7 3 15 5 8 1 59 15 113 29 53 15
105 29 115 31 9 2 29 8 45 14 15 6 27 8 27 6 0 -2 11 0 25 5 14 5 36 12 48 14
12 3 141 37 287 77 146 39 272 73 280 74 8 2 17 4 20 6 3 1 10 3 15 4 6 2 12
4 15 5 10 3 45 11 58 12 6 1 12 5 12 10 0 5 4 7 9 4 5 -4 21 -2 35 4 15 5 39
12 54 15 15 3 32 7 37 9 6 1 30 8 55 15 25 6 68 18 95 27 28 8 63 17 78 19 14
3 37 9 49 14 13 5 26 9 31 10 4 0 8 1 10 2 7 2 35 9 59 14 15 3 38 9 50 14 13
5 25 9 28 9 3 0 23 5 45 11 22 6 43 11 47 11 4 1 22 6 40 11 18 6 41 12 51 14
10 2 27 7 37 10 10 3 27 8 37 10 10 2 61 16 113 30 52 15 102 28 110 30 8 2
42 10 75 19 33 9 71 19 85 22 13 3 29 9 36 15 6 5 13 7 16 4 2 -3 20 0 39 6
19 5 41 12 49 14 8 2 51 13 95 25 44 12 89 24 100 26 23 4 45 31 45 54 0 9 3
20 7 24 4 3 8 14 9 24 7 39 15 72 43 173 17 58 32 117 35 130 3 13 10 40 16
59 6 19 13 43 15 53 2 10 14 52 25 95 12 42 24 85 26 95 2 9 6 26 9 37 3 11 7
29 9 40 3 11 8 25 12 32 4 6 8 21 10 32 1 12 10 46 18 76 28 104 77 285 81
301 2 9 8 33 14 54 l10 37 -32 -7 c-49 -10 -62 -13 -62 -15 0 -1 -163 -46
-197 -55 -10 -2 -60 -15 -111 -29 -51 -14 -102 -27 -112 -29 -11 -2 -27 -7
-35 -10 -12 -5 -116 -33 -155 -41 -5 -2 -30 -8 -55 -15 -25 -7 -52 -15 -60
-17 -8 -1 -58 -15 -110 -29 -52 -15 -102 -28 -110 -30 -8 -1 -35 -8 -60 -15
-25 -7 -52 -14 -60 -15 -8 -2 -15 -4 -15 -5 0 -1 -7 -3 -16 -5 -9 -1 -43 -11
-75 -20 -33 -9 -68 -19 -79 -22 -38 -8 -50 -11 -50 -13 0 -1 -9 -3 -20 -6 -11
-2 -112 -29 -225 -59 -113 -31 -215 -58 -227 -61 -12 -2 -33 -8 -45 -13 -13
-5 -26 -9 -30 -10 -5 0 -9 -1 -10 -2 -2 0 -10 -2 -18 -4 -8 -1 -51 -13 -95
-24 -79 -22 -111 -30 -130 -35 -5 -1 -19 -5 -30 -9 -11 -3 -31 -8 -45 -11 -14
-3 -83 -21 -155 -41 -71 -20 -155 -43 -185 -50 -30 -8 -91 -24 -135 -36 -44
-11 -84 -22 -90 -24 -5 -1 -21 -7 -35 -12 -14 -6 -28 -9 -32 -6 -4 2 -16 -1
-27 -6 -11 -6 -37 -14 -58 -17 -21 -3 -44 -11 -50 -16 -7 -6 -13 -8 -13 -5 0
3 -33 -3 -72 -15 -40 -11 -77 -21 -83 -22 -5 -2 -30 -8 -55 -15 -40 -12 -58
-16 -95 -24 -5 -2 -16 -6 -22 -10 -7 -5 -13 -6 -13 -3 0 3 -11 1 -25 -4 -14
-5 -36 -12 -48 -14 -47 -10 -213 -57 -235 -66 -17 -7 -21 -7 -16 1 4 8 0 7
-15 -1 -12 -6 -30 -13 -39 -15 -9 -2 -93 -25 -187 -50 -93 -25 -174 -47 -180
-48 -5 -2 -16 -6 -23 -11 -7 -4 -16 -6 -19 -3 -3 3 -17 1 -32 -5 -14 -5 -33
-11 -41 -13 -8 -2 -35 -8 -60 -15 -25 -7 -52 -14 -60 -15 -8 -2 -15 -4 -15 -5
0 -1 -7 -3 -15 -5 -8 -2 -42 -11 -75 -20 -33 -9 -68 -18 -77 -21 -10 -2 -28
-7 -40 -10 -13 -3 -30 -7 -38 -9 -8 -2 -15 -4 -15 -5 0 -1 -7 -3 -15 -5 -13
-2 -107 -28 -150 -40 -18 -5 -88 -24 -110 -29 -8 -2 -42 -11 -75 -20 -33 -9
-67 -18 -75 -20 -28 -7 -255 -67 -265 -70 -5 -2 -13 -4 -17 -5 -242 -67 -249
-69 -285 -77 -12 -2 -33 -8 -45 -13 -13 -5 -25 -9 -28 -9 -3 0 -25 -5 -50 -12
-25 -7 -52 -14 -60 -16 -61 -14 -173 -45 -179 -48 -4 -3 -18 -7 -32 -9 -13 -3
-44 -10 -69 -17 -25 -7 -52 -14 -60 -16 -8 -1 -58 -15 -110 -30 -52 -14 -102
-27 -110 -29 -8 -2 -41 -10 -72 -20 -31 -9 -69 -18 -84 -21 -15 -3 -31 -7 -35
-10 -11 -6 -4 24 52 226 5 19 11 42 13 50 2 8 11 42 20 75 9 33 19 69 22 80 3
11 7 30 9 42 2 12 6 27 10 32 3 6 8 20 10 30 6 33 116 444 131 490 7 24 11 47
8 52 -3 5 -1 9 4 9 5 0 9 6 9 13 0 14 47 191 79 297 7 25 15 56 18 70 2 14 11
46 19 73 8 26 13 47 11 47 -2 0 1 12 7 28 6 15 13 35 15 45 2 9 6 25 8 35 5
19 60 224 113 417 19 71 37 136 38 145 4 15 33 125 59 218 8 29 14 53 15 55 0
1 2 9 5 17 9 29 35 125 40 150 2 14 16 68 31 120 29 105 75 277 80 300 1 8 9
35 16 60 7 25 14 50 15 55 2 6 14 53 28 105 15 52 31 105 36 118 7 17 7 21 -1
16 -7 -4 -6 3 2 17 7 13 14 33 16 44 2 11 6 27 10 35 3 8 7 22 8 30 1 8 10 42
19 75 10 33 20 67 21 75 2 8 13 51 25 95 12 44 25 94 29 110 7 29 -8 45 -370
407 -207 207 -379 383 -382 390 -2 7 -10 -7 -17 -32z"/>
</g>
</svg>
